<?xml version="1.0" standalone="no"?><svg xmlns="http://www.w3.org/2000/svg" viewBox="0 0 1440 320"><path fill="#f6a190" fill-opacity="1" d="M0,256L24,245.3C48,235,96,213,144,186.7C192,160,240,128,288,117.3C336,107,384,117,432,128C480,139,528,149,576,144C624,139,672,117,720,117.3C768,117,816,139,864,176C912,213,960,267,1008,256C1056,245,1104,171,1152,122.7C1200,75,1248,53,1296,42.7C1344,32,1392,32,1416,32L1440,32L1440,0L1416,0C1392,0,1344,0,1296,0C1248,0,1200,0,1152,0C1104,0,1056,0,1008,0C960,0,912,0,864,0C816,0,768,0,720,0C672,0,624,0,576,0C528,0,480,0,432,0C384,0,336,0,288,0C240,0,192,0,144,0C96,0,48,0,24,0L0,0Z"></path></svg>